<svg width="28.000000" height="28.000000" viewBox="0 0 28 28" fill="none" xmlns="http://www.w3.org/2000/svg" xmlns:xlink="http://www.w3.org/1999/xlink">
	<desc>
			Created with Pixso.
	</desc>
	<defs>
		<clipPath id="clip2_34">
			<rect id="ant-design:shopping-cart-outlined" width="28.000000" height="28.000000" fill="white" fill-opacity="0"/>
		</clipPath>
	</defs>
	<rect id="ant-design:shopping-cart-outlined" width="28.000000" height="28.000000" fill="#FFFFFF" fill-opacity="0"/>
	<g clip-path="url(#clip2_34)">
		<path id="Vector" d="M25.2363 19.1926L8.95312 19.1926L9.77051 17.5273L23.3545 17.5027C23.8145 17.5027 24.208 17.1746 24.29 16.7207L26.1709 6.19061C26.2207 5.91446 26.1465 5.63007 25.9658 5.41406C25.877 5.30774 25.7656 5.22211 25.6396 5.16309C25.5146 5.10406 25.377 5.07309 25.2383 5.07227L7.95703 5.01483L7.80957 4.32031C7.7168 3.87735 7.31738 3.55469 6.86328 3.55469L2.63867 3.55469C2.38281 3.55469 2.1377 3.65637 1.95605 3.8374C1.77539 4.0184 1.67383 4.26392 1.67383 4.51993C1.67383 4.77591 1.77539 5.02142 1.95605 5.20245C2.1377 5.38345 2.38281 5.48517 2.63867 5.48517L6.08203 5.48517L6.72656 8.55313L8.31543 16.2449L6.27051 19.5836C6.16406 19.727 6.10059 19.8972 6.08594 20.075C6.07129 20.2528 6.10645 20.4312 6.18848 20.5898C6.35254 20.9152 6.68359 21.1203 7.0498 21.1203L8.7666 21.1203C8.40039 21.6065 8.20312 22.1988 8.20312 22.8074C8.20312 24.3551 9.46094 25.6129 11.0088 25.6129C12.5566 25.6129 13.8145 24.3551 13.8145 22.8074C13.8145 22.1977 13.6123 21.6043 13.251 21.1203L17.6562 21.1203C17.29 21.6065 17.0928 22.1988 17.0928 22.8074C17.0928 24.3551 18.3506 25.6129 19.8984 25.6129C21.4463 25.6129 22.7041 24.3551 22.7041 22.8074C22.7041 22.1977 22.502 21.6043 22.1406 21.1203L25.2383 21.1203C25.7695 21.1203 26.2041 20.6883 26.2041 20.1551C26.2021 19.8994 26.0996 19.6546 25.918 19.4743C25.7373 19.294 25.4912 19.1927 25.2363 19.1926ZM8.35938 6.91797L24.1035 6.96991L22.5615 15.6051L10.1943 15.627L8.35938 6.91797ZM11.0088 23.6715C10.5332 23.6715 10.1445 23.2832 10.1445 22.8074C10.1445 22.3316 10.5332 21.9434 11.0088 21.9434C11.4844 21.9434 11.873 22.3316 11.873 22.8074C11.873 23.0366 11.7822 23.2564 11.6201 23.4184C11.458 23.5804 11.2383 23.6715 11.0088 23.6715ZM19.8984 23.6715C19.4229 23.6715 19.0342 23.2832 19.0342 22.8074C19.0342 22.3316 19.4229 21.9434 19.8984 21.9434C20.374 21.9434 20.7627 22.3316 20.7627 22.8074C20.7627 23.0366 20.6719 23.2564 20.5098 23.4184C20.3477 23.5804 20.1279 23.6715 19.8984 23.6715Z" fill="#000000" fill-opacity="1.000000" fill-rule="nonzero"/>
	</g>
</svg>
