<svg width="28.000000" height="28.000000" viewBox="0 0 28 28" fill="none" xmlns="http://www.w3.org/2000/svg" xmlns:xlink="http://www.w3.org/1999/xlink">
	<desc>
			Created with Pixso.
	</desc>
	<defs>
		<clipPath id="clip2_30">
			<rect id="akar-icons:search" width="28.000000" height="28.000000" fill="white" fill-opacity="0"/>
		</clipPath>
	</defs>
	<rect id="akar-icons:search" width="28.000000" height="28.000000" fill="#FFFFFF" fill-opacity="0"/>
	<g clip-path="url(#clip2_30)">
		<path id="Vector" d="M24.5 24.5L19.2656 19.257M19.2617 19.2621C17.4023 21.1219 14.8799 22.1667 12.25 22.1667C9.61914 22.1667 7.09766 21.1219 5.2373 19.2621C3.37793 17.4024 2.33301 14.8801 2.33301 12.25C2.33301 9.61993 3.37793 7.0976 5.2373 5.23785C7.09766 3.37814 9.61914 2.33334 12.25 2.33334C14.8799 2.33334 17.4023 3.37814 19.2617 5.23785C21.1211 7.0976 22.166 9.61993 22.166 12.25C22.166 14.8801 21.1211 17.4024 19.2617 19.2621Z" stroke="#000000" stroke-opacity="1.000000" stroke-width="2.000000" stroke-linecap="round"/>
	</g>
</svg>
