<svg width="28.000000" height="28.000000" viewBox="0 0 28 28" fill="none" xmlns="http://www.w3.org/2000/svg" xmlns:xlink="http://www.w3.org/1999/xlink">
	<desc>
			Created with Pixso.
	</desc>
	<defs>
		<clipPath id="clip2_28">
			<rect id="mdi:account-alert-outline" width="28.000000" height="28.000000" fill="white" fill-opacity="0"/>
		</clipPath>
	</defs>
	<rect id="mdi:account-alert-outline" width="28.000000" height="28.000000" fill="#FFFFFF" fill-opacity="0"/>
	<g clip-path="url(#clip2_28)">
		<path id="Vector" d="M23.333 14L23.333 8.16666L25.666 8.16666L25.666 15.1667L23.333 15.1667L23.333 14ZM23.333 19.8333L25.666 19.8333L25.666 17.5L23.333 17.5L23.333 19.8333ZM11.666 15.1667C14.7812 15.1667 21 16.73 21 19.8333L21 23.3333L2.33301 23.3333L2.33301 19.8333C2.33301 16.73 8.55176 15.1667 11.666 15.1667ZM11.666 4.66666C12.9043 4.66666 14.0908 5.15833 14.9658 6.03348C15.8418 6.90866 16.333 8.09564 16.333 9.33331C16.333 10.571 15.8418 11.758 14.9658 12.6331C14.0908 13.5083 12.9043 14 11.666 14C10.4287 14 9.24121 13.5083 8.36621 12.6331C7.49121 11.758 7 10.571 7 9.33331C7 8.09564 7.49121 6.90866 8.36621 6.03348C9.24121 5.15833 10.4287 4.66666 11.666 4.66666ZM11.666 17.3833C8.20117 17.3833 4.5498 19.0867 4.5498 19.8333L4.5498 21.1167L18.7832 21.1167L18.7832 19.8333C18.7832 19.0867 15.1309 17.3833 11.666 17.3833ZM11.666 6.88333C11.0166 6.88333 10.3936 7.14145 9.93359 7.60092C9.47461 8.06036 9.2168 8.68353 9.2168 9.33331C9.2168 9.98309 9.47461 10.6063 9.93359 11.0657C10.3936 11.5252 11.0166 11.7833 11.666 11.7833C12.3164 11.7833 12.9395 11.5252 13.3984 11.0657C13.8584 10.6063 14.1162 9.98309 14.1162 9.33331C14.1162 8.68353 13.8584 8.06036 13.3984 7.60092C12.9395 7.14145 12.3164 6.88333 11.666 6.88333Z" fill="#000000" fill-opacity="1.000000" fill-rule="nonzero"/>
	</g>
</svg>
